<?xml version="1.0" standalone="no"?>
<!DOCTYPE svg PUBLIC "-//W3C//DTD SVG 20010904//EN"
 "http://www.w3.org/TR/2001/REC-SVG-20010904/DTD/svg10.dtd">
<svg version="1.0" xmlns="http://www.w3.org/2000/svg"
 width="1950.000000pt" height="1300.000000pt" viewBox="0 0 1950.000000 1300.000000"
 preserveAspectRatio="xMidYMid meet">
<metadata>
Created by potrace 1.15, written by Peter Selinger 2001-2017
</metadata>
<g transform="translate(0.000000,1300.000000) scale(0.100000,-0.100000)"
fill="#000000" stroke="none">
<path d="M0 6500 l0 -6500 3609 0 3608 0 6 29 c7 36 28 44 78 31 28 -8 39 -16
39 -30 0 -10 -6 -21 -13 -23 -6 -3 2730 -6 6081 -6 l6092 -1 0 6500 0 6500
-9750 0 -9750 0 0 -6500z m12834 4022 c4 -7 51 -9 51 -2 0 1 16 3 35 4 41 3
60 -9 60 -36 0 -17 -5 -20 -30 -14 -16 3 -30 1 -30 -3 0 -5 -35 -10 -77 -11
-43 -1 -100 -3 -128 -5 -27 -2 -131 -6 -230 -9 -99 -3 -243 -8 -320 -11 -77
-3 -408 -14 -735 -25 -327 -10 -662 -22 -745 -25 -82 -3 -346 -12 -585 -20
-239 -8 -498 -17 -575 -20 -77 -3 -376 -14 -665 -25 -289 -11 -635 -24 -770
-30 -135 -5 -375 -14 -535 -20 -159 -6 -414 -15 -565 -21 -590 -22 -734 -20
-714 13 3 4 -2 8 -11 8 -14 0 -14 2 -3 13 24 24 52 29 163 32 60 2 148 6 195
9 47 3 146 8 220 11 74 3 182 7 240 10 58 2 184 7 280 10 96 3 218 7 270 10
94 5 223 9 595 20 105 4 210 8 235 10 25 2 168 7 318 11 226 5 272 4 272 -7 1
-10 4 -9 10 3 9 14 32 17 173 17 89 1 178 4 197 7 43 8 34 -5 -12 -17 -24 -6
-12 -7 42 -4 90 4 90 4 65 15 -14 6 3 9 55 10 41 0 118 3 170 6 59 3 90 1 82
-4 -10 -7 -7 -11 12 -14 28 -6 45 7 24 15 -7 3 4 6 24 6 20 1 39 -4 42 -11 3
-10 7 -9 15 2 7 12 31 16 93 18 46 1 283 9 528 17 611 21 949 26 971 15 11 -7
19 -6 21 1 2 7 86 12 243 15 132 2 264 6 293 8 34 3 52 0 53 -7 0 -8 2 -8 6 1
2 6 20 12 39 12 20 0 34 -5 34 -12 0 -10 2 -10 9 0 4 7 25 13 47 12 21 -1 51
2 66 6 24 5 29 2 42 -27 14 -34 14 -34 15 -6 1 22 6 27 26 27 16 0 25 -6 25
-15 0 -22 18 -18 25 5 3 11 10 20 15 20 22 0 40 -14 40 -31 0 -10 5 -19 11
-19 6 0 9 9 6 20 -3 12 -1 18 5 14 6 -4 15 0 20 7 6 9 11 10 14 3 3 -6 11 -20
19 -30 14 -18 14 -18 15 4 0 28 26 39 53 23 11 -7 22 -9 26 -4 11 15 39 14 45
-2 3 -8 11 -15 17 -15 7 0 9 3 6 7 -4 3 -2 12 4 20 13 15 45 18 53 5z m-5589
-437 l0 -30 -110 -8 c-76 -6 -124 -5 -153 2 -40 11 -58 31 -28 31 8 0 21 6 28
13 21 22 36 24 153 23 l110 -1 0 -30z m488 -84 c21 -17 11 -34 -16 -27 -12 3
-26 1 -32 -4 -6 -5 -69 -12 -141 -16 -71 -3 -133 -9 -139 -12 -15 -9 -139 -2
-143 8 -2 5 -14 3 -26 -5 -15 -10 -46 -15 -92 -14 -63 1 -180 -4 -401 -18 -62
-4 -83 -2 -83 7 0 9 -3 10 -14 1 -18 -15 -103 -18 -117 -4 -9 9 -9 16 2 29 11
13 25 15 70 11 34 -4 60 -2 66 4 10 10 115 17 343 23 52 2 95 4 95 6 0 8 132
6 142 -2 7 -6 14 -5 18 2 4 6 21 10 38 10 45 -1 259 9 263 12 10 10 154 1 167
-11z m3598 -77 c10 -13 10 -17 -1 -24 -9 -6 -17 -4 -22 3 -6 9 -10 9 -16 0 -4
-7 -43 -15 -92 -18 -47 -3 -102 -8 -122 -10 -21 -1 -38 1 -38 6 0 5 -12 4 -26
-1 -14 -6 -45 -10 -70 -10 -37 0 -44 3 -44 19 0 11 4 22 8 25 4 2 86 7 182 10
95 3 175 8 178 11 11 11 50 4 63 -11z m-4260 -24 c21 -12 25 -35 9 -45 -6 -4
-17 -2 -24 5 -10 7 -15 8 -18 0 -4 -14 -75 -23 -83 -10 -4 6 -16 5 -33 -1 -42
-16 -134 -20 -151 -6 -11 9 -15 9 -18 0 -6 -17 -97 -17 -111 0 -24 29 24 50
85 37 26 -6 40 -5 44 2 5 7 54 13 131 16 68 2 125 6 127 8 7 7 21 5 42 -6z
m5039 -5 c25 -30 2 -35 -157 -40 -62 -2 -122 -6 -134 -10 -16 -5 -26 -2 -35 9
-10 15 -14 15 -27 2 -13 -13 -207 -29 -417 -34 -80 -2 -255 -12 -301 -17 -40
-4 -51 -2 -56 10 -3 9 -1 21 4 26 6 6 82 13 169 15 88 3 166 7 174 10 8 3 65
8 125 10 219 9 277 12 282 18 4 3 12 1 18 -4 8 -7 21 -7 36 -1 13 4 73 9 134
10 60 1 112 4 114 7 10 10 60 3 71 -11z m-4802 -71 c26 -17 19 -38 -9 -31 -10
3 -22 1 -25 -4 -3 -5 -16 -6 -30 -3 -14 4 -24 2 -24 -5 0 -7 -32 -11 -92 -11
-51 0 -126 -3 -167 -6 -50 -4 -76 -3 -80 5 -6 9 -15 8 -37 -4 -36 -19 -65 -19
-89 -1 -30 21 -12 46 32 45 21 0 47 -4 58 -9 13 -5 26 -3 36 6 10 9 57 15 153
18 76 3 140 7 143 9 10 11 110 4 131 -9z m288 -75 c10 -17 -14 -35 -28 -21 -9
9 -15 8 -28 -3 -12 -11 -53 -16 -156 -20 -76 -3 -152 -8 -167 -11 -15 -3 -34
-1 -41 5 -9 8 -22 8 -37 2 -47 -17 -140 -23 -156 -9 -13 10 -17 10 -20 1 -6
-16 -95 -17 -110 -2 -21 21 -3 39 41 38 22 0 50 -4 61 -8 14 -5 24 -3 31 7 8
11 33 16 80 18 38 2 97 5 131 8 34 3 65 1 68 -4 3 -6 15 -6 30 0 13 5 74 12
137 15 62 4 115 9 117 11 5 5 39 -14 47 -27z m4262 -1 c18 -18 15 -40 -5 -36
-10 1 -23 -1 -30 -5 -16 -10 -176 -13 -191 -3 -6 4 -21 2 -33 -4 -12 -7 -77
-13 -145 -15 -106 -2 -123 0 -126 14 -3 13 -7 11 -24 -7 -19 -21 -30 -23 -110
-21 -49 1 -96 0 -104 -2 -9 -3 -16 4 -18 18 -3 18 3 23 30 28 18 3 47 4 65 2
18 -2 35 -2 37 1 3 2 54 6 113 8 59 1 128 5 153 8 25 3 110 8 190 12 80 3 147
8 149 10 9 8 37 4 49 -8z m1229 -4 c11 -29 -19 -43 -98 -47 -42 -3 -83 -1 -90
3 -7 5 -23 4 -37 -1 -35 -13 -224 -18 -240 -6 -8 7 -18 5 -30 -5 -11 -10 -26
-12 -42 -8 -14 4 -33 3 -44 -3 -16 -8 -258 -21 -338 -18 -16 1 -28 -4 -28 -10
0 -7 -8 -9 -22 -4 -13 3 -27 6 -33 6 -12 -1 -101 -6 -285 -16 -74 -4 -142 -11
-151 -15 -9 -5 -30 -5 -50 0 -20 6 -56 6 -89 1 -35 -6 -62 -5 -74 1 -13 7 -21
7 -26 -2 -4 -6 -33 -11 -71 -11 -35 1 -91 -2 -125 -5 -49 -5 -62 -3 -67 9 -11
29 20 37 174 43 85 3 174 7 199 9 25 1 124 8 220 14 96 6 213 14 260 16 47 3
164 10 260 16 96 6 216 12 265 15 50 2 124 6 165 10 73 6 291 19 358 23 21 0
35 -4 39 -15z m-5487 -80 c0 -20 -21 -28 -31 -13 -8 12 -11 12 -19 -1 -6 -10
-27 -15 -57 -16 -26 -1 -87 -5 -135 -9 -61 -5 -88 -4 -88 3 0 7 -10 6 -27 -4
-35 -18 -149 -19 -156 -1 -4 9 -7 9 -14 0 -14 -19 -86 -25 -108 -9 -32 23 -3
46 51 42 25 -2 48 -6 51 -10 4 -3 13 0 22 8 12 10 57 16 161 21 80 3 157 8
173 11 18 4 27 1 27 -8 0 -9 2 -10 8 -1 9 15 90 21 120 9 12 -5 22 -15 22 -22z
m77 -70 c3 -8 3 -18 -1 -21 -10 -11 -95 -20 -108 -12 -7 4 -18 3 -25 -2 -7 -6
-16 -8 -22 -5 -5 3 -42 1 -83 -4 -65 -9 -74 -9 -86 7 -21 29 -8 38 64 43 166
12 255 10 261 -6z m5142 3 c8 -11 6 -18 -8 -31 -15 -14 -35 -17 -98 -15 -43 2
-84 0 -91 -5 -20 -12 -195 -16 -209 -4 -9 7 -17 7 -27 -1 -7 -6 -44 -13 -82
-15 -38 -2 -84 -7 -103 -12 -27 -6 -37 -3 -47 11 -13 18 -14 18 -34 0 -14 -13
-33 -18 -58 -16 -59 4 -66 3 -92 -4 -26 -8 -40 -8 -100 -5 -19 1 -57 -1 -84
-5 -36 -6 -50 -4 -58 6 -7 11 -11 11 -15 2 -2 -7 -14 -13 -26 -13 -12 0 -28
-4 -36 -9 -7 -5 -29 -5 -48 0 -20 4 -62 3 -95 -2 -39 -6 -64 -6 -72 0 -7 6
-17 6 -26 0 -8 -5 -45 -8 -83 -8 -37 1 -70 -1 -74 -4 -3 -4 -14 -2 -24 4 -13
6 -19 6 -19 -1 0 -15 -66 -12 -79 4 -17 20 7 26 92 23 37 -1 68 2 70 7 2 5 25
11 53 12 44 2 162 9 329 19 33 2 98 7 145 11 47 3 112 8 145 9 66 3 178 11
270 20 33 3 114 8 180 11 66 3 156 9 200 13 130 13 191 13 204 -2z m-1231 -9
c18 -18 14 -31 -8 -25 -11 3 -20 1 -20 -3 0 -4 -24 -11 -52 -14 -29 -3 -57 -6
-63 -6 -5 -1 -42 0 -82 1 -40 1 -78 -2 -85 -7 -7 -5 -60 -9 -118 -9 -101 0
-105 1 -108 23 -3 17 2 22 20 23 13 0 37 2 53 3 17 2 102 6 190 11 88 4 162 9
164 11 10 9 98 3 109 -8z m-3894 -61 c11 -8 16 -19 12 -25 -9 -15 -36 -16 -36
-2 0 6 -4 10 -10 10 -5 0 -7 -7 -4 -15 5 -11 -1 -15 -25 -15 -17 0 -31 -5 -31
-11 0 -8 -4 -8 -12 -2 -19 15 -78 24 -78 13 0 -14 -127 -13 -136 1 -5 8 -9 8
-14 -1 -12 -19 -149 -29 -165 -13 -11 10 -14 10 -19 -2 -6 -15 -69 -21 -100
-9 -50 19 16 57 72 42 25 -7 39 -6 55 5 14 9 45 14 80 13 32 -1 61 2 63 6 3 4
50 7 104 6 55 -1 102 1 105 4 12 12 121 8 139 -5z m1790 -42 c16 -12 17 -18 8
-27 -10 -10 -15 -10 -21 0 -6 10 -10 9 -14 -7 -4 -17 -13 -21 -44 -21 -21 0
-207 -11 -413 -24 -497 -33 -476 -32 -472 -17 2 9 -3 11 -15 6 -10 -3 -37 -9
-61 -12 -41 -4 -43 -3 -40 18 3 19 10 23 48 25 25 1 45 3 45 4 0 3 148 12 387
24 47 2 96 7 108 11 12 4 27 1 36 -6 12 -10 17 -10 23 -1 5 8 46 13 122 15 63
1 116 5 120 9 3 4 20 3 39 -2 23 -7 38 -6 47 1 7 6 13 9 13 6 0 -3 12 -2 28 3
36 11 34 11 56 -5z m3467 -5 c43 -23 19 -42 -76 -57 -19 -3 -109 -4 -123 -1
-4 1 -20 -4 -37 -11 -22 -9 -39 -10 -65 -2 -25 7 -47 7 -74 0 -22 -6 -50 -9
-63 -6 -13 2 -42 1 -66 -3 -27 -5 -47 -4 -55 3 -10 8 -16 7 -21 -2 -6 -9 -26
-12 -62 -10 -30 2 -59 1 -65 -3 -6 -4 -66 -10 -133 -13 -91 -5 -126 -3 -138 6
-12 11 -17 10 -24 -2 -5 -11 -26 -17 -66 -18 -32 -2 -80 -5 -108 -7 -27 -3
-99 -6 -160 -8 -60 -2 -126 -6 -145 -10 -19 -3 -86 -8 -148 -11 l-114 -6 4 23
c3 21 9 23 58 25 30 1 102 6 160 12 111 11 370 29 530 37 52 2 138 9 190 14
52 6 142 12 200 15 58 2 148 8 200 14 52 5 122 10 155 10 50 1 212 15 223 20
2 0 12 -4 23 -9z m-1086 -10 c15 -24 -25 -41 -107 -46 -46 -2 -103 -7 -128
-10 -25 -4 -100 -8 -167 -9 -66 -2 -129 -7 -138 -12 -9 -6 -35 -7 -56 -3 -21
4 -58 4 -81 -1 -29 -5 -47 -4 -55 4 -24 24 3 37 88 42 46 3 102 7 124 10 22 2
94 7 160 11 66 3 158 10 205 14 127 11 148 11 155 0z m-4047 -12 c23 -19 14
-41 -13 -34 -14 4 -25 2 -25 -4 0 -5 -18 -10 -40 -10 -22 0 -49 -5 -59 -11
-11 -8 -29 -9 -47 -4 -33 9 -95 8 -140 -1 -18 -3 -34 -1 -38 4 -4 7 -21 6 -50
-4 -24 -9 -64 -14 -88 -12 -35 2 -44 7 -46 24 -4 31 29 39 160 39 65 0 118 3
118 6 0 3 28 6 62 7 33 1 63 4 66 7 9 9 127 3 140 -7z m567 -38 c3 -5 -3 -19
-14 -31 -17 -18 -28 -21 -70 -17 -34 3 -52 1 -55 -7 -5 -14 -99 -8 -104 6 -2
5 -13 2 -25 -5 -30 -18 -147 -22 -147 -4 1 32 20 43 82 45 35 1 83 3 108 6 25
2 57 0 72 -4 15 -4 30 -4 32 0 3 4 22 8 42 9 20 1 39 4 42 7 9 8 30 6 37 -5z
m-425 -54 c0 -25 -21 -48 -27 -30 -2 5 -24 8 -50 8 -27 -1 -53 3 -60 8 -8 7
-18 5 -28 -6 -19 -19 -130 -23 -141 -5 -4 7 -9 7 -13 1 -3 -5 -29 -16 -58 -24
-46 -14 -53 -14 -67 0 -12 12 -18 13 -30 3 -8 -7 -35 -11 -63 -9 -37 2 -49 7
-51 22 -5 24 15 36 58 35 51 -1 264 11 268 16 2 1 62 4 133 4 l129 2 0 -25z
m340 -56 c0 -18 -47 -24 -285 -34 -33 -1 -63 2 -67 7 -4 6 -13 3 -24 -8 -15
-14 -29 -17 -81 -12 -35 2 -63 2 -63 -2 0 -11 -68 -12 -75 -1 -4 6 -14 5 -28
-4 -12 -7 -50 -14 -84 -15 -57 -2 -63 0 -63 18 0 34 20 39 190 44 41 1 81 6
87 10 13 8 86 10 181 4 17 -1 32 0 32 3 0 3 37 5 83 5 45 0 100 3 122 6 40 5
75 -4 75 -21z m3648 8 c3 -13 -8 -17 -60 -23 -35 -3 -74 -6 -88 -6 -71 -1
-129 -7 -166 -17 -27 -8 -51 -9 -73 -2 -22 6 -40 6 -52 0 -10 -6 -49 -10 -86
-11 -37 0 -90 -1 -118 -2 -44 -2 -50 0 -50 18 0 18 9 21 75 27 80 8 185 15
339 23 52 3 96 6 97 8 1 1 42 2 91 2 74 0 88 -3 91 -17z m-3323 -32 c21 -3 42
-3 46 0 5 3 62 7 128 9 96 4 121 2 131 -10 10 -12 8 -16 -11 -24 -18 -6 -26
-5 -31 8 -6 15 -7 15 -7 -1 -1 -12 -10 -16 -36 -15 -19 1 -35 6 -35 11 0 6 -4
4 -10 -4 -10 -17 -92 -23 -101 -8 -4 6 -15 5 -30 -3 -13 -7 -61 -14 -106 -15
-45 -1 -91 -5 -102 -9 -14 -4 -21 -2 -21 7 0 10 -2 10 -9 0 -12 -20 -46 -10
-46 13 0 13 7 21 20 22 11 1 29 3 40 4 11 1 28 -2 38 -6 11 -4 17 -3 17 5 0 7
8 10 20 7 11 -3 20 -1 20 5 0 6 7 8 15 4 8 -3 15 -1 15 5 0 6 4 8 9 5 4 -3 25
-8 46 -10z m-255 -27 c0 -24 -39 -47 -79 -45 -22 1 -41 0 -41 -3 0 -3 -34 -7
-75 -8 -44 -2 -75 1 -75 7 0 6 -4 10 -10 10 -5 0 -10 -6 -10 -13 0 -10 -21
-13 -85 -13 -47 1 -86 -2 -88 -6 -3 -9 -111 -13 -124 -5 -7 4 -14 3 -18 -3 -8
-13 -48 -7 -53 8 -5 17 -22 15 -22 -3 0 -18 -45 -21 -56 -4 -5 8 -9 8 -14 -1
-12 -19 -148 -29 -162 -12 -20 24 15 45 79 47 32 1 66 5 76 10 11 4 34 3 52
-2 19 -6 37 -8 40 -4 11 10 225 27 225 18 0 -6 5 -5 13 0 6 5 35 9 62 9 28 -1
53 3 57 9 4 5 10 2 14 -8 6 -16 8 -16 18 -2 8 12 31 16 91 16 44 0 96 4 115 8
39 8 70 4 70 -10z m3609 -58 c8 -5 11 -16 8 -24 -4 -11 -31 -17 -107 -22 -56
-4 -104 -5 -107 -1 -3 3 -12 1 -19 -5 -8 -7 -14 -7 -18 0 -5 7 -15 7 -32 1
-36 -14 -91 -12 -98 3 -3 9 -9 7 -19 -6 -12 -15 -36 -19 -143 -23 -71 -3 -155
-9 -188 -13 -44 -6 -59 -4 -63 6 -8 19 16 43 41 41 23 -1 172 9 251 18 77 8
168 14 305 20 68 3 126 7 129 10 7 7 45 4 60 -5z m-3999 -46 c7 -8 9 -22 6
-31 -5 -13 -16 -16 -51 -11 -25 2 -48 1 -50 -3 -3 -5 -29 -8 -58 -7 -28 0 -74
-3 -100 -7 -34 -5 -53 -4 -63 5 -13 10 -17 10 -24 -1 -6 -9 -33 -16 -79 -18
-61 -4 -72 -2 -78 13 -10 28 21 43 85 40 31 -1 62 1 68 6 6 5 41 7 78 5 37 -1
69 0 71 4 5 7 94 4 102 -4 3 -3 12 -1 19 5 8 6 21 9 29 5 8 -3 15 -1 15 4 0
15 16 12 30 -5z m4440 -64 c10 -19 -3 -41 -17 -27 -3 3 -13 1 -22 -4 -35 -18
-487 -45 -497 -29 -4 6 -13 4 -25 -7 -14 -13 -41 -18 -106 -21 -49 -1 -119 -6
-158 -9 -38 -3 -108 -8 -155 -10 -47 -3 -109 -8 -138 -11 -59 -6 -83 6 -64 30
12 14 90 23 257 32 70 4 119 8 275 24 47 4 89 4 94 0 5 -4 17 -4 27 2 19 10
27 11 274 29 88 6 165 13 170 15 31 11 75 4 85 -14z m-276 -77 c9 -3 16 -15
16 -26 0 -15 -5 -18 -16 -14 -9 4 -22 2 -28 -3 -6 -5 -61 -12 -121 -14 -61 -3
-119 -9 -129 -13 -13 -5 -23 -1 -33 12 -14 19 -14 19 -28 0 -12 -16 -30 -20
-92 -23 -43 -2 -103 -5 -133 -8 -30 -2 -82 -7 -115 -9 -33 -2 -83 -8 -111 -11
-36 -5 -54 -4 -59 5 -13 21 18 38 85 44 114 11 323 27 392 31 37 2 71 5 75 8
5 3 65 9 133 12 69 4 127 9 129 11 6 6 17 5 35 -2z m-2724 -76 c0 -15 -23 -20
-31 -7 -8 13 -13 5 -10 -14 2 -13 -17 -15 -184 -27 -88 -6 -173 -13 -190 -15
-16 -3 -127 -12 -245 -20 -118 -9 -225 -18 -238 -20 -14 -4 -25 0 -28 9 -4 11
-12 13 -29 6 -13 -5 -32 -8 -42 -8 -10 0 -25 -1 -33 -3 -9 -3 -16 4 -18 19 -3
19 1 22 30 23 18 0 42 2 53 4 11 2 67 7 125 11 162 10 177 11 186 17 5 2 37 4
72 3 34 0 62 2 62 7 0 4 11 5 24 1 14 -3 32 -1 42 4 12 7 24 6 36 -2 15 -8 21
-8 27 3 6 9 19 12 39 8 16 -3 32 -4 35 0 11 11 176 13 183 2 4 -6 9 -7 13 -2
11 16 85 30 104 18 9 -5 17 -13 17 -17z m3400 -13 c20 -24 1 -36 -61 -40 -30
-2 -88 -6 -129 -10 -41 -3 -102 -8 -135 -10 -33 -2 -67 -6 -75 -9 -17 -6 -175
-18 -262 -20 -31 -1 -60 -5 -63 -8 -4 -3 -19 -3 -35 2 -15 4 -32 4 -36 0 -5
-5 -43 -11 -84 -13 -41 -3 -95 -9 -119 -13 -32 -5 -45 -3 -51 7 -7 11 -12 10
-27 -3 -10 -8 -38 -16 -63 -17 -80 -3 -134 -7 -184 -15 -37 -7 -50 -5 -58 5
-7 11 -11 11 -15 2 -7 -18 -40 -16 -47 2 -6 17 16 30 38 22 7 -3 18 -1 24 5 6
6 34 12 64 14 51 3 123 9 238 19 30 2 66 7 80 11 14 4 91 8 171 9 81 2 156 8
166 14 18 9 92 16 273 26 166 9 278 18 315 25 59 11 61 11 75 -5z m-963 -29
c-6 -19 -59 -27 -292 -43 -38 -2 -98 -7 -132 -10 -51 -4 -63 -2 -63 10 0 8 6
19 13 24 10 8 220 31 292 31 27 0 129 14 133 18 8 6 52 -20 49 -30z m-3507
-27 c0 -25 -33 -41 -85 -43 -35 -1 -57 -6 -60 -14 -4 -10 -10 -10 -25 -2 -12
6 -30 8 -42 4 -12 -4 -24 -1 -28 7 -7 10 -11 10 -24 0 -9 -7 -45 -16 -81 -19
-61 -4 -65 -3 -65 16 0 29 25 39 88 36 29 -1 54 2 57 6 3 4 35 6 72 5 38 -1
72 0 77 3 5 3 26 6 47 6 21 1 41 4 45 8 8 9 24 0 24 -13z m-435 -59 c0 -15 -5
-24 -13 -22 -7 1 -35 3 -63 3 -27 1 -49 6 -49 12 0 6 -10 0 -21 -12 -16 -17
-29 -22 -49 -18 -15 3 -32 1 -38 -5 -8 -8 -13 -7 -17 4 -6 14 -12 14 -63 -2
-35 -11 -61 -14 -68 -9 -6 5 -34 5 -68 -2 -31 -5 -61 -7 -66 -4 -18 11 -12 55
8 56 9 1 24 2 32 3 8 0 30 -2 48 -5 17 -4 32 -3 32 2 0 4 12 8 28 7 26 -1 123
10 128 15 1 1 56 2 121 2 l118 0 0 -25z m342 -37 c6 -18 -43 -34 -112 -37 -72
-3 -100 -15 -65 -28 14 -5 26 -5 29 1 3 5 41 9 84 9 43 0 81 3 84 6 12 11 103
6 103 -5 0 -22 -44 -50 -75 -49 -16 1 -32 1 -35 0 -3 -1 -38 -4 -79 -7 -55 -3
-76 -1 -82 9 -7 10 -9 9 -9 -4 0 -13 -9 -18 -27 -19 -16 -1 -59 -4 -98 -6 -38
-3 -98 -6 -132 -7 -35 -1 -66 -6 -70 -9 -12 -13 -44 -7 -50 10 -5 14 -8 13
-15 -6 -6 -18 -13 -21 -30 -15 -13 3 -24 10 -26 14 -2 5 -16 1 -32 -7 -16 -8
-55 -15 -87 -16 -51 -2 -58 0 -61 18 -3 21 43 51 53 34 3 -4 11 -6 18 -4 7 3
28 7 47 9 19 3 47 8 63 12 16 4 33 1 41 -5 11 -9 15 -9 18 0 2 6 28 13 58 14
113 7 226 16 245 19 11 3 24 5 30 5 6 1 6 4 0 10 -12 11 -106 21 -100 11 6 -9
-101 -24 -114 -16 -5 4 -31 1 -57 -6 -36 -10 -48 -10 -51 -1 -3 8 -11 7 -31
-3 -36 -19 -152 -19 -152 0 0 24 30 40 71 38 21 -2 48 2 60 9 17 9 20 8 13 -3
-6 -10 -5 -11 7 -2 8 7 33 10 58 7 24 -2 51 -1 60 3 17 8 30 10 107 14 28 2
56 0 62 -4 7 -4 12 -4 12 1 0 4 24 8 53 7 28 0 60 2 69 5 32 11 141 7 145 -6z
m578 -13 c4 -6 15 -6 31 0 32 13 55 12 74 0 13 -9 12 -12 -4 -25 -26 -20 -36
-19 -37 3 -1 13 -2 14 -6 2 -4 -18 -73 -23 -73 -5 0 5 -4 3 -10 -5 -11 -18
-91 -24 -102 -7 -6 9 -10 9 -17 -1 -9 -15 -123 -30 -204 -28 -26 0 -47 -2 -47
-6 0 -5 -9 -8 -20 -8 -15 0 -20 7 -20 24 0 26 0 26 78 27 23 0 42 4 42 8 0 5
36 8 80 7 44 0 80 3 80 8 0 4 19 6 43 3 23 -3 51 -2 62 3 27 12 43 12 50 0z
m2879 -66 c18 -17 11 -38 -9 -30 -7 2 -16 1 -21 -4 -5 -5 -49 -12 -99 -15 -49
-4 -115 -9 -146 -12 -44 -4 -57 -1 -62 10 -10 27 14 34 153 46 74 7 136 14
139 17 9 9 30 3 45 -12z m386 -39 c21 -25 1 -34 -92 -39 -48 -2 -92 -7 -97
-10 -5 -3 -16 -4 -23 -1 -8 3 -34 1 -58 -4 -28 -6 -49 -6 -56 0 -7 6 -22 3
-43 -7 -18 -9 -42 -13 -56 -10 -13 3 -34 2 -47 -3 -15 -6 -31 -5 -42 1 -11 6
-21 6 -29 0 -17 -13 -106 -21 -113 -10 -3 5 -12 4 -20 -3 -18 -14 -44 -5 -44
17 0 12 6 15 28 11 16 -3 33 0 42 8 11 10 52 16 120 19 58 3 120 10 137 15 20
6 35 6 38 0 4 -5 15 -5 27 2 11 6 75 13 141 15 66 2 123 6 125 9 11 11 50 4
62 -10z m-116 -211 c17 -16 13 -35 -7 -33 -19 2 -57 -13 -57 -22 0 -5 13 -6
29 -3 34 7 46 -8 30 -34 -8 -13 -25 -20 -58 -21 -54 -3 -70 -5 -213 -21 -59
-6 -112 -9 -117 -5 -6 3 -20 1 -31 -5 -11 -6 -41 -12 -67 -13 -43 -2 -48 0
-51 20 -4 25 6 29 108 38 36 3 92 8 125 11 33 3 62 8 65 10 10 11 -25 22 -41
13 -9 -5 -66 -11 -126 -14 -59 -3 -134 -9 -166 -13 -32 -5 -60 -4 -63 0 -3 5
-11 5 -17 1 -7 -4 -34 -9 -60 -11 -43 -3 -48 -1 -45 15 3 15 14 18 60 19 32 1
63 6 70 11 7 6 51 14 96 18 46 3 103 9 125 11 23 3 65 6 92 8 108 9 192 18
225 26 55 13 77 11 94 -6z m631 -4 c22 -24 23 -22 -40 -43 l-50 -16 60 0 c33
0 79 4 103 9 26 6 49 7 60 1 11 -6 30 -5 54 4 39 13 58 5 58 -23 0 -11 -8 -13
-35 -8 -19 4 -44 2 -54 -4 -21 -10 -93 -21 -171 -24 -25 -2 -52 -5 -60 -8 -28
-11 -87 -16 -99 -8 -7 4 -26 1 -42 -7 -35 -17 -58 -14 -73 10 -13 22 5 37 46
37 15 0 30 5 34 12 5 8 -4 9 -32 5 -21 -4 -47 -7 -57 -7 -13 0 -16 -6 -12 -22
8 -35 -8 -49 -59 -51 -25 -1 -46 -5 -46 -9 0 -4 -15 -6 -32 -6 -18 1 -60 -2
-93 -5 -33 -4 -87 -9 -120 -12 -33 -3 -69 -7 -80 -9 -11 -2 -58 -7 -105 -11
-47 -4 -110 -9 -140 -12 -30 -2 -81 -7 -113 -10 -57 -5 -59 -4 -55 19 3 20 10
24 68 31 36 4 90 9 120 11 30 3 118 12 195 21 77 9 154 15 170 13 17 -1 35 1
41 5 7 4 43 9 80 13 74 6 153 21 119 23 -12 1 -26 6 -32 12 -9 9 -16 7 -29 -6
-13 -12 -27 -16 -51 -12 -19 3 -52 -1 -76 -9 -38 -14 -43 -13 -54 3 -7 9 -13
22 -13 29 0 13 102 31 225 39 44 3 88 8 97 11 18 5 102 13 185 17 28 1 55 6
59 10 13 12 30 8 49 -13z m-5035 -185 c15 -18 3 -38 -18 -30 -8 3 -19 0 -23
-7 -5 -7 -31 -13 -66 -13 -32 -1 -77 -5 -101 -9 -28 -5 -47 -4 -57 4 -10 9
-19 8 -37 -3 -33 -21 -144 -32 -151 -15 -4 10 -8 10 -14 1 -11 -15 -94 -26
-112 -14 -39 25 24 55 93 44 20 -3 36 -1 36 4 0 11 1 11 80 15 30 2 60 7 67
11 6 4 24 7 40 7 53 -1 174 8 179 12 11 11 73 6 84 -7z m448 -38 c19 -13 3
-29 -23 -23 -14 4 -25 1 -27 -6 -3 -7 -27 -14 -59 -15 -30 -2 -78 -6 -106 -9
-38 -5 -53 -3 -53 5 0 8 -7 7 -22 -3 -12 -9 -37 -16 -54 -16 -28 0 -31 3 -26
25 2 14 12 26 21 26 9 1 30 3 46 5 97 11 126 11 131 3 3 -5 10 -9 15 -9 6 0 8
4 5 9 -4 5 -2 11 4 13 20 6 135 3 148 -5z m-388 -32 c0 -8 -4 -15 -10 -15 -5
0 -10 -7 -10 -15 0 -15 -12 -17 -85 -20 -16 -1 -54 -5 -84 -9 -41 -6 -55 -5
-62 5 -7 11 -11 11 -17 2 -9 -15 -80 -30 -132 -29 -39 1 -54 28 -23 44 21 12
120 23 221 25 39 1 72 5 72 9 0 4 26 9 58 11 31 2 60 4 65 5 4 1 7 -5 7 -13z
m4601 -315 c31 -17 22 -35 -23 -48 -65 -18 -175 -30 -192 -20 -8 5 -17 4 -21
-1 -10 -17 -93 -25 -110 -11 -13 10 -19 10 -34 -4 -12 -11 -41 -18 -92 -20
-41 -3 -87 -9 -102 -15 -15 -6 -38 -11 -50 -11 -12 0 -58 -1 -102 -4 -44 -2
-85 0 -92 6 -8 6 -15 3 -23 -11 -8 -17 -21 -21 -58 -22 -26 0 -72 -4 -102 -9
-30 -4 -59 -4 -63 0 -5 4 -22 1 -39 -7 -33 -17 -52 -7 -46 23 3 20 4 20 203
48 68 9 104 10 113 4 8 -7 16 -7 26 1 14 12 21 13 176 31 52 6 132 16 177 21
45 6 87 8 93 4 6 -4 16 -2 23 3 7 5 39 12 72 16 47 6 151 21 238 35 5 0 17 -4
28 -9z m-4846 -183 c21 -16 12 -39 -13 -36 -10 1 -25 -1 -35 -6 -10 -4 -21 -5
-24 -1 -3 3 -11 2 -17 -3 -6 -4 -46 -11 -88 -15 -67 -6 -77 -5 -80 10 -3 16
-5 16 -18 2 -29 -28 -180 -58 -180 -36 0 7 -4 7 -12 0 -18 -14 -100 -24 -116
-14 -18 12 -4 41 24 48 13 3 40 3 59 0 25 -5 40 -3 50 8 8 8 35 15 62 15 46 1
80 4 208 17 33 4 70 7 83 8 12 0 22 4 22 9 0 12 55 8 75 -6z m275 -52 c11 -13
11 -18 0 -28 -10 -9 -14 -9 -17 1 -4 10 -8 10 -17 -2 -7 -10 -37 -17 -91 -21
-44 -3 -87 -8 -97 -11 -9 -3 -19 0 -23 6 -4 7 -14 5 -28 -5 -31 -22 -77 -20
-77 4 0 26 21 40 53 37 15 -2 27 0 27 5 0 4 17 8 38 8 29 1 135 11 208 20 6 0
17 -6 24 -14z m-360 -40 c0 -8 -7 -15 -15 -15 -9 0 -26 -7 -38 -14 -22 -15
-134 -37 -178 -35 -13 0 -57 -3 -96 -7 -63 -6 -73 -5 -73 9 0 25 33 37 98 37
32 0 62 3 66 7 4 4 19 9 34 10 15 2 54 7 87 12 95 13 115 13 115 -4z m436 -30
c16 -13 17 -16 4 -24 -9 -7 -18 -7 -24 -1 -14 14 -26 12 -26 -3 0 -14 -37 -21
-118 -22 -28 0 -52 -3 -52 -6 0 -4 -24 -9 -52 -12 -29 -3 -73 -10 -98 -16 -25
-5 -49 -6 -54 -1 -5 5 -18 5 -30 0 -12 -4 -48 -11 -80 -15 -45 -6 -60 -4 -67
6 -8 12 -10 12 -18 0 -12 -19 -106 -27 -116 -11 -14 23 26 42 83 38 28 -2 53
1 55 6 4 11 26 15 95 17 29 1 54 5 57 8 3 7 96 14 195 15 25 1 48 5 52 10 3 5
39 13 80 16 40 4 78 8 84 9 5 0 19 -6 30 -14z m6136 -63 c-7 -2 -12 -12 -12
-23 0 -10 -4 -19 -10 -19 -5 0 -10 -7 -10 -15 0 -16 12 -20 24 -7 4 4 13 7 19
7 7 0 11 11 10 23 -2 17 2 22 20 22 16 0 18 -3 8 -9 -10 -6 -10 -10 -1 -16 8
-5 7 -12 -5 -25 -10 -11 -15 -25 -12 -32 4 -9 6 -8 6 3 1 12 9 16 27 15 19 -1
24 -5 20 -18 -3 -12 2 -18 13 -18 9 0 22 -5 29 -12 9 -9 12 -5 12 19 0 18 5
35 11 39 8 5 10 -1 6 -18 -9 -34 14 -53 59 -50 21 2 34 -2 34 -9 0 -7 7 -21
17 -31 10 -11 12 -18 4 -18 -9 0 -9 -5 -1 -20 13 -25 33 -16 25 11 -7 21 14
26 45 9 14 -8 19 -5 23 11 3 12 10 18 15 15 6 -3 12 0 15 6 2 7 4 0 5 -17 0
-16 5 -68 11 -115 6 -47 13 -109 16 -139 9 -81 73 -191 112 -191 36 0 58 -113
84 -433 10 -134 10 -149 -5 -166 -14 -15 -24 -17 -54 -10 -55 12 -168 4 -196
-15 -18 -11 -27 -29 -31 -60 -4 -25 -12 -49 -19 -54 -12 -9 -143 -40 -285 -67
-119 -24 -116 -28 -116 183 0 333 24 1064 39 1197 2 24 49 75 55 61 2 -6 -1
-12 -7 -14z m-6257 -25 c10 -8 15 -19 11 -25 -10 -16 -36 -15 -36 1 -1 7 -6 5
-14 -6 -11 -14 -37 -20 -113 -27 -54 -6 -123 -14 -153 -19 -30 -5 -59 -5 -63
-1 -12 11 1 50 16 50 39 2 135 12 217 24 52 7 100 14 106 15 5 0 18 -5 29 -12z
m4869 -53 c10 -26 7 -34 -13 -34 -11 0 -23 -5 -26 -10 -4 -6 -32 -10 -63 -9
-33 1 -72 -5 -94 -14 -20 -8 -46 -13 -57 -10 -12 3 -27 1 -34 -4 -6 -5 -41 -9
-77 -8 -52 0 -65 3 -68 16 -2 9 5 20 15 24 18 8 222 40 318 51 27 3 51 7 54
10 10 10 39 3 45 -12z m-634 -19 c8 -9 9 -19 4 -24 -20 -17 -94 -33 -130 -29
-25 3 -55 -2 -83 -14 -52 -22 -49 -34 6 -19 21 5 79 15 128 21 50 6 104 15
120 20 17 4 56 11 88 13 51 5 57 4 57 -13 0 -29 -43 -52 -92 -49 -24 1 -61 -3
-84 -9 -72 -21 -237 -34 -245 -20 -6 9 -13 7 -28 -6 -21 -19 -21 -19 -1 -33
26 -18 26 -43 0 -43 -10 0 -29 -4 -42 -10 -20 -9 -94 -19 -261 -37 -47 -5 -49
-4 -45 18 3 22 11 25 98 39 52 9 90 19 85 22 -12 6 -71 2 -142 -10 -57 -10
-63 -8 -63 19 0 19 12 24 83 34 26 3 45 10 43 14 -3 5 -31 4 -63 -1 -32 -5
-75 -7 -95 -5 -20 3 -38 1 -40 -3 -6 -16 -62 -16 -65 0 -6 31 15 39 152 58
146 21 170 18 147 -18 -21 -34 -14 -37 56 -28 88 12 108 31 27 26 -50 -2 -60
0 -63 14 -4 22 22 33 98 43 80 10 111 14 145 20 17 2 57 7 90 10 33 4 62 8 64
11 10 9 39 3 51 -11z m-4270 -171 c8 -8 6 -15 -5 -24 -14 -11 -18 -11 -25 -1
-6 11 -10 10 -18 -4 -12 -22 -112 -34 -112 -13 0 11 -2 10 -9 0 -12 -20 -150
-40 -160 -23 -6 9 -11 8 -21 -4 -8 -10 -29 -15 -62 -15 -41 0 -49 3 -46 17 4
20 50 34 89 26 18 -3 35 0 45 8 9 7 33 14 53 15 20 1 54 5 76 9 22 5 55 8 73
8 17 0 32 3 32 6 0 11 79 6 90 -5z m295 -118 c18 -13 18 -14 -3 -25 -17 -9
-22 -9 -22 0 0 8 -4 8 -15 -1 -9 -7 -30 -15 -48 -17 -43 -5 -75 -10 -119 -19
-25 -4 -38 -3 -38 4 0 6 -12 5 -30 -4 -16 -8 -55 -16 -87 -17 -46 -2 -58 1
-61 14 -4 21 19 30 88 35 30 3 59 9 64 14 5 5 22 6 37 3 16 -3 35 0 43 6 9 7
17 8 20 2 4 -6 19 -6 41 0 19 6 40 7 45 4 6 -3 10 -1 10 4 0 16 53 13 75 -3z
m927 -34 c10 -10 10 -14 -2 -22 -9 -6 -17 -5 -22 3 -6 9 -11 8 -18 -4 -6 -10
-24 -17 -47 -18 -21 0 -49 -3 -63 -7 -82 -20 -100 -21 -100 -8 0 8 -4 14 -10
14 -5 0 -10 -4 -10 -9 0 -5 -23 -14 -50 -20 -73 -16 -82 -15 -78 11 3 20 10
23 58 26 30 2 60 8 66 13 6 5 18 7 25 4 8 -2 50 3 94 13 95 20 139 22 157 4z
m-711 -12 c14 0 11 -27 -4 -33 -8 -3 -39 -8 -70 -12 -45 -6 -57 -4 -57 6 0 11
-2 11 -10 -1 -5 -8 -17 -16 -27 -16 -10 -1 -31 -4 -48 -7 -53 -10 -110 -11
-123 -3 -7 4 -29 0 -50 -10 -55 -26 -89 -27 -95 -4 -6 25 8 34 53 36 19 0 43
4 53 8 9 5 28 6 41 2 12 -3 26 -3 30 1 10 10 73 18 203 26 29 2 56 7 60 10 4
4 13 5 21 2 7 -3 18 -5 23 -5z m297 -38 c2 -7 -3 -12 -12 -12 -9 0 -16 -7 -16
-15 0 -8 -3 -14 -7 -13 -5 1 -30 -2 -58 -6 -27 -4 -68 -9 -90 -11 -22 -2 -58
-6 -79 -10 -28 -6 -41 -4 -47 6 -6 10 -11 11 -16 3 -9 -13 -61 -30 -116 -38
-28 -4 -40 -1 -44 10 -9 25 12 36 78 40 34 2 65 8 68 12 3 5 36 9 72 9 36 0
70 3 76 6 5 3 40 9 76 13 37 4 67 10 67 14 0 11 44 4 48 -8z m470 -17 c9 -9
-12 -26 -25 -21 -8 3 -21 -1 -29 -9 -9 -8 -30 -15 -47 -16 -18 0 -59 -6 -92
-13 -51 -12 -62 -11 -71 1 -8 9 -13 10 -16 3 -3 -11 -114 -31 -123 -22 -22 23
15 42 84 44 17 1 31 4 31 8 0 3 25 7 57 8 31 0 59 6 63 13 4 6 12 9 17 6 6 -4
30 -2 54 2 39 8 87 6 97 -4z m-420 -52 c2 -7 -3 -13 -12 -13 -9 0 -16 -7 -16
-15 0 -8 -3 -14 -7 -13 -5 1 -35 -2 -68 -6 -33 -4 -71 -9 -85 -10 -14 -2 -45
-6 -69 -11 -32 -5 -46 -4 -52 6 -6 10 -11 11 -16 3 -9 -13 -61 -30 -116 -38
-28 -4 -40 -1 -44 10 -9 25 12 36 78 41 35 2 66 7 69 12 3 4 36 7 73 7 38 -1
71 2 73 5 2 4 35 10 74 14 38 4 70 10 70 15 0 12 43 6 48 -7z m3592 -24 c0
-18 -10 -23 -38 -20 -8 1 -19 -2 -25 -7 -7 -6 -60 -16 -119 -23 -59 -7 -105
-17 -102 -21 8 -12 124 -2 209 17 81 19 130 17 130 -5 0 -9 -11 -16 -25 -18
-14 -2 -32 -6 -40 -9 -23 -9 -50 -13 -106 -17 -28 -1 -57 -7 -65 -12 -8 -4
-33 -9 -57 -9 -23 0 -41 -4 -40 -10 2 -11 62 -11 113 -2 176 34 252 40 259 22
6 -16 -8 -27 -38 -31 -12 -2 -32 -5 -46 -8 -49 -10 -228 -36 -278 -41 -28 -3
-64 -10 -79 -16 -15 -5 -41 -9 -58 -8 -16 1 -37 -1 -45 -4 -32 -12 -109 -16
-115 -6 -8 12 13 40 29 37 6 -1 26 2 44 6 22 5 38 4 47 -4 12 -10 15 -10 15 2
0 10 21 19 66 27 44 9 62 17 56 23 -7 7 -21 7 -43 -1 -55 -19 -79 -15 -79 14
0 15 6 25 15 25 38 0 116 23 108 31 -6 6 -20 6 -37 -1 -15 -5 -41 -10 -57 -10
-24 0 -29 4 -29 23 0 20 7 24 68 36 37 7 81 12 97 12 17 0 66 5 110 13 122 20
155 19 155 -5z m-4095 -39 c3 -6 -1 -13 -9 -16 -9 -3 -16 -12 -16 -19 0 -13
-132 -31 -149 -20 -6 3 -30 -4 -55 -15 -57 -28 -91 -24 -91 10 0 22 4 24 54
28 30 1 60 7 67 12 6 6 22 10 35 10 19 -1 107 10 151 19 4 0 10 -4 13 -9z
m7415 -86 c0 -6 11 -17 25 -24 13 -7 23 -16 22 -20 -1 -4 8 -16 21 -26 26 -22
34 -49 33 -116 0 -27 4 -48 10 -48 5 0 9 -7 9 -15 0 -8 -5 -15 -11 -15 -5 0
-7 -5 -3 -12 6 -9 9 -9 12 0 7 21 20 13 20 -13 0 -17 -6 -25 -18 -25 -10 0
-20 -7 -24 -15 -3 -8 -14 -15 -24 -15 -10 0 -31 -10 -46 -23 -15 -13 -43 -29
-64 -37 -20 -7 -48 -21 -61 -31 -23 -18 -24 -18 -37 -2 -16 22 -18 97 -3 124
6 11 19 29 29 39 20 20 34 90 26 129 -3 13 -17 41 -31 62 -14 21 -25 52 -25
68 l0 30 70 -2 c42 -1 70 -6 70 -13z m-7460 -94 c0 -15 -22 -23 -30 -10 -5 8
-9 7 -14 -5 -4 -11 -13 -15 -26 -12 -11 3 -23 1 -26 -5 -3 -5 -18 -8 -32 -7
-15 1 -34 -1 -42 -4 -30 -11 -71 -14 -76 -6 -3 5 -17 3 -32 -5 -43 -21 -139
-29 -145 -12 -9 23 20 39 80 43 31 2 62 8 69 14 6 5 18 7 26 4 8 -3 26 -1 41
4 18 7 28 7 33 0 4 -6 10 -7 17 0 17 13 50 17 65 8 6 -5 12 -4 12 2 0 5 10 11
23 13 25 5 57 -8 57 -22z m891 -11 c24 -12 15 -32 -12 -24 -10 4 -19 2 -19 -3
0 -11 -99 -34 -142 -33 -15 0 -30 -4 -33 -10 -4 -5 -11 -7 -16 -3 -5 3 -7 10
-4 15 9 14 -8 11 -31 -5 -11 -8 -40 -16 -64 -17 -39 -3 -45 -1 -45 16 0 16 9
21 50 27 28 4 79 12 115 18 36 6 85 12 109 15 24 2 46 7 49 10 8 8 21 6 43 -6z
m-694 -36 c4 -12 -39 -27 -104 -36 -21 -4 -33 -1 -33 6 -1 7 -6 6 -13 -4 -13
-16 -16 -17 -127 -23 -41 -2 -88 -9 -103 -15 -16 -6 -42 -11 -58 -11 -26 0
-30 3 -27 23 2 15 9 21 23 20 11 -1 36 2 55 8 19 5 73 12 120 16 47 3 92 9
100 13 8 4 35 8 59 9 24 0 47 3 50 6 9 10 54 0 58 -12z m313 -12 c3 -1 -4 -8
-15 -17 -11 -8 -19 -18 -17 -21 3 -7 0 -8 -83 -19 -27 -4 -63 -9 -80 -11 -16
-2 -55 -6 -86 -7 -30 -2 -64 -8 -75 -13 -31 -16 -122 -25 -129 -13 -13 22 25
49 63 46 20 -2 49 1 66 6 17 5 60 11 96 14 71 4 195 25 205 35 5 5 39 5 55 0z
m3253 -104 c10 -28 -27 -48 -98 -53 -16 -1 -54 -7 -84 -14 -44 -9 -56 -9 -62
2 -7 10 -11 10 -17 1 -11 -18 -68 -28 -77 -14 -13 22 17 43 55 38 22 -3 40 1
48 9 7 8 25 14 40 14 15 1 52 7 82 15 72 18 107 18 113 2z m655 -110 c-2 -13
-11 -21 -28 -23 -14 -1 -72 -11 -130 -22 -161 -30 -210 -34 -217 -16 -3 8 -3
17 0 20 3 3 45 12 93 20 49 8 118 20 154 27 36 7 80 13 98 14 28 1 33 -2 30
-20z m-392 -58 c12 -19 -13 -31 -90 -42 -94 -14 -103 -32 -11 -23 36 4 72 9
80 12 11 5 15 -1 15 -18 0 -23 -6 -25 -80 -38 -43 -7 -77 -17 -74 -21 6 -10
68 -4 184 16 163 29 152 29 148 3 -2 -16 -10 -24 -28 -25 -14 -1 -83 -13 -155
-27 -71 -13 -134 -21 -138 -19 -4 3 -14 0 -21 -6 -8 -7 -18 -11 -22 -10 -5 1
-25 -1 -46 -5 -20 -4 -49 -9 -65 -11 -15 -2 -54 -7 -85 -11 -49 -6 -58 -4 -58
9 0 23 13 28 76 32 30 2 60 8 67 13 7 5 32 13 57 17 52 8 62 13 55 25 -3 4
-28 1 -56 -7 -38 -11 -54 -12 -62 -4 -20 20 7 45 61 56 60 12 85 31 27 21 -22
-4 -50 -10 -62 -13 -16 -3 -25 0 -29 12 -6 15 8 39 24 41 4 0 32 5 62 12 96
20 216 26 226 11z m-2730 -70 c9 -16 -7 -27 -46 -33 -19 -2 -59 -9 -89 -15
-43 -9 -56 -8 -63 1 -6 10 -8 9 -8 -3 0 -12 -8 -16 -28 -14 -16 1 -34 5 -40 9
-7 4 -12 1 -12 -6 0 -20 -130 -44 -142 -26 -5 9 -8 9 -8 2 0 -11 -95 -35 -150
-38 -14 -1 -30 -5 -37 -9 -7 -4 -16 0 -22 10 -6 10 -11 13 -11 7 0 -12 -72
-34 -110 -34 -15 0 -20 5 -18 18 2 12 20 20 63 28 33 7 60 13 60 14 0 1 21 3
46 5 26 1 53 6 60 11 8 4 26 7 41 5 14 -1 43 2 65 8 21 6 63 13 93 17 30 3 59
9 65 12 5 4 22 5 37 3 15 -1 32 1 38 4 6 4 37 9 68 11 31 2 71 8 87 13 41 13
53 13 61 0z m-1278 -35 c25 -7 29 -29 7 -38 -8 -3 -15 -1 -15 4 0 6 -4 10 -10
10 -5 0 -10 -7 -10 -16 0 -13 -7 -15 -35 -11 -19 3 -37 1 -41 -5 -4 -5 -19 -8
-35 -6 -16 3 -29 0 -29 -5 0 -5 -6 -7 -12 -4 -7 2 -24 0 -37 -5 -17 -6 -27 -5
-32 3 -6 10 -11 10 -24 -1 -9 -7 -45 -19 -81 -26 -58 -10 -66 -10 -71 4 -10
23 30 44 86 46 27 0 53 4 57 9 4 4 25 7 46 7 21 0 38 5 38 11 0 8 4 8 13 0 9
-7 24 -8 46 -1 18 5 39 6 47 3 8 -3 14 0 14 5 0 10 19 18 45 21 6 0 20 -2 33
-5z m362 -45 c0 -8 -38 -20 -107 -34 -24 -5 -33 -3 -33 7 0 10 -3 9 -10 -2 -5
-8 -17 -16 -27 -17 -10 -2 -42 -6 -70 -9 -29 -4 -53 -10 -53 -14 0 -5 -9 -6
-20 -3 -11 3 -20 10 -20 16 0 6 -6 3 -12 -6 -15 -19 -138 -36 -138 -19 0 5 -9
8 -20 5 -11 -3 -20 -9 -20 -13 0 -7 -45 -21 -83 -25 -10 -1 -21 4 -24 11 -9
25 15 41 57 39 22 -1 40 2 40 7 0 5 15 8 33 7 18 -2 37 0 43 3 5 4 19 6 29 4
11 -2 38 1 60 6 46 11 61 14 135 22 30 4 65 12 78 18 18 10 25 9 31 -1 6 -9
11 -10 15 -2 4 6 20 11 37 11 16 0 29 4 29 10 0 6 10 5 25 -2 14 -6 25 -15 25
-19z m-100 -84 c0 -15 -6 -25 -15 -26 -8 -1 -18 -2 -22 -3 -25 -6 -119 -19
-126 -18 -4 1 -33 -4 -63 -12 -47 -12 -56 -12 -61 -1 -4 12 -10 10 -31 -5 -15
-11 -53 -23 -84 -26 -54 -6 -58 -5 -58 14 0 23 24 36 62 33 14 -1 46 3 70 10
23 7 68 13 98 13 30 1 60 4 65 8 11 6 125 23 138 20 4 -1 7 3 7 8 0 6 5 10 10
10 6 0 10 -11 10 -25z m1320 -220 c0 -8 -4 -15 -10 -15 -5 0 -10 -8 -10 -18 0
-15 -41 -24 -322 -70 -178 -29 -326 -53 -330 -52 -5 0 -8 7 -8 15 0 13 -5 12
-27 -4 -16 -11 -52 -22 -80 -26 -49 -6 -53 -5 -53 14 0 16 6 21 25 21 14 0 25
4 25 8 0 4 16 6 35 4 19 -2 41 1 48 6 7 6 42 12 77 14 36 2 68 7 71 11 3 4 27
10 54 12 26 3 66 10 87 16 22 6 52 9 66 8 15 -1 34 1 42 4 32 13 97 26 138 29
24 1 46 6 48 10 3 4 20 8 37 9 18 0 41 4 52 9 29 13 35 12 35 -5z m2528 -67
c-3 -18 -16 -24 -88 -41 -47 -10 -92 -19 -100 -19 -8 0 -46 -7 -85 -16 -38 -8
-86 -15 -106 -17 -20 -1 -40 -5 -45 -8 -15 -9 -104 -18 -115 -11 -27 16 25 38
116 49 6 1 17 4 25 7 49 19 266 61 393 77 5 1 7 -9 5 -21z m116 -36 c8 -14
-13 -37 -36 -39 -13 -1 -63 -10 -113 -21 -49 -11 -94 -18 -98 -15 -4 3 -13 0
-20 -5 -7 -5 -19 -10 -27 -10 -8 -1 -60 -10 -115 -21 -56 -10 -104 -15 -109
-10 -5 5 -14 2 -20 -5 -6 -8 -35 -16 -63 -19 -48 -5 -53 -4 -53 13 0 11 3 20
8 21 4 0 18 3 32 5 14 2 39 6 56 8 17 2 36 6 41 9 26 16 134 39 193 40 36 2
70 5 75 9 11 7 179 41 232 47 6 0 14 -3 17 -7z m5525 -20 c-1 -4 -1 -16 0 -27
2 -18 3 -18 12 3 l9 23 27 -26 c16 -14 33 -23 40 -21 7 3 15 0 19 -6 5 -7 11
-5 20 6 14 20 34 13 34 -10 0 -14 2 -13 16 0 20 21 36 20 32 -1 -4 -23 -57
-40 -69 -22 -6 11 -11 11 -21 1 -14 -14 -42 -16 -33 -2 8 12 -10 13 -50 2 -17
-5 -55 -6 -86 -3 -30 4 -66 4 -80 1 -13 -4 -43 -1 -66 6 -26 8 -43 9 -45 3 -5
-14 -68 10 -68 26 0 19 39 45 57 38 8 -3 20 3 28 13 14 18 14 18 15 0 0 -13 5
-16 18 -11 36 15 94 25 105 18 20 -12 47 -10 47 4 0 11 5 11 20 3 11 -6 19
-14 19 -18z m-9728 7 c26 -13 13 -32 -16 -25 -15 4 -25 1 -29 -9 -3 -9 -18
-16 -33 -16 -66 -1 -103 -4 -103 -10 0 -4 -16 -10 -36 -14 -26 -4 -39 -2 -45
7 -6 9 -11 10 -16 2 -9 -13 -61 -30 -115 -37 -26 -4 -38 -1 -42 8 -8 22 20 42
61 44 41 2 88 8 88 11 0 3 25 7 94 14 30 3 60 11 67 16 8 8 14 7 17 -2 4 -9 8
-10 14 -2 17 23 63 30 94 13z m699 -30 c0 -19 -29 -40 -59 -44 -17 -2 -39 -6
-49 -9 -10 -4 -36 -8 -58 -11 -47 -5 -105 -14 -121 -20 -6 -2 -14 1 -16 8 -3
9 -8 8 -20 -2 -26 -21 -140 -42 -149 -28 -13 21 19 39 78 43 32 3 61 8 64 13
3 5 37 11 75 13 70 5 177 24 204 37 22 11 51 11 51 0z m-541 -25 c14 -13 -32
-35 -82 -40 -44 -5 -57 -3 -57 7 -1 9 -5 6 -13 -6 -7 -11 -21 -21 -32 -22 -11
-1 -41 -4 -67 -7 -27 -3 -48 -1 -48 3 0 5 -9 7 -20 4 -11 -3 -20 -9 -20 -13 0
-7 -28 -17 -78 -26 -20 -4 -23 -1 -20 23 3 25 7 28 43 28 22 0 45 4 52 8 11 7
32 10 138 23 69 8 95 11 98 14 1 1 12 3 24 4 13 2 26 6 30 9 6 7 42 0 52 -9z
m3986 -24 c0 -8 -15 -18 -35 -23 -30 -7 -251 -50 -315 -61 -11 -1 -29 -6 -40
-9 -11 -3 -38 -9 -60 -11 -22 -3 -58 -10 -80 -16 -22 -5 -46 -10 -52 -10 -14
0 -18 39 -5 41 14 1 47 8 76 15 19 5 31 2 37 -7 7 -11 9 -11 9 3 0 11 11 20
28 24 15 3 45 11 67 16 22 6 64 12 93 15 29 2 90 12 135 22 99 21 142 22 142
1z m5120 -190 c-3 -5 -4 -10 -1 -10 2 0 11 -3 20 -6 11 -4 16 0 17 12 0 17 1
17 8 -1 5 -11 4 -25 -2 -33 -5 -7 -7 -16 -3 -20 4 -4 15 2 24 14 17 20 18 20
74 3 49 -14 61 -15 83 -3 15 8 23 9 19 2 -5 -7 2 -9 21 -4 22 6 26 4 22 -8 -8
-20 0 -20 19 -1 18 18 34 20 34 4 0 -7 10 -9 25 -5 14 4 25 3 25 -2 0 -11 30
-9 49 2 7 5 16 5 20 0 11 -16 33 -15 48 3 14 17 14 17 10 -3 -3 -16 0 -20 17
-19 12 2 20 7 19 12 -1 5 9 9 23 9 25 0 32 -11 12 -19 -7 -2 -1 -4 14 -3 14 0
24 4 22 8 -2 3 5 4 16 1 11 -3 27 0 35 7 14 11 19 7 16 -12 0 -5 4 -8 9 -8 6
0 10 7 10 16 0 13 3 14 15 4 8 -6 22 -9 32 -6 10 3 31 2 47 -2 l30 -8 -32 -23
c-33 -23 -52 -21 -52 5 0 8 -5 12 -10 9 -6 -4 -8 -10 -5 -15 9 -14 -6 -40 -24
-40 -9 0 -22 -5 -28 -11 -12 -12 -53 4 -53 22 0 6 6 7 13 3 7 -5 6 0 -3 10
-14 18 -15 18 -20 -5 -4 -16 -12 -23 -25 -21 -10 2 -28 -2 -41 -8 -31 -17 -75
-5 -67 18 6 15 5 15 -10 2 -47 -43 -47 -43 -68 -24 -11 10 -20 14 -19 9 2 -6
2 -17 1 -25 -1 -11 -3 -12 -9 -3 -4 7 -28 14 -53 16 -25 2 -51 7 -58 11 -7 4
-19 5 -27 2 -12 -5 -12 -2 -3 15 10 20 10 20 -16 3 -14 -9 -29 -14 -33 -10 -3
4 0 11 8 16 8 5 12 12 8 15 -3 3 -13 -1 -21 -10 -19 -18 -27 -19 -27 -2 0 7
-14 12 -35 13 -24 0 -35 -4 -35 -14 0 -12 -3 -12 -15 -2 -13 11 -13 15 -3 23
9 6 7 7 -6 3 -21 -7 -49 11 -39 26 3 6 0 8 -8 6 -8 -3 -13 -11 -11 -17 1 -6
-5 -11 -14 -11 -18 0 -44 23 -44 39 0 6 -4 11 -10 11 -23 0 -7 21 20 27 17 3
33 10 36 14 3 5 7 9 10 9 3 0 2 -4 -1 -10z m-5345 -48 c0 -20 -49 -42 -94 -42
-15 0 -37 -5 -49 -11 -11 -7 -39 -14 -62 -16 -85 -9 -101 -11 -128 -22 -16 -6
-44 -11 -63 -11 -28 0 -35 4 -32 17 2 10 14 21 28 24 57 16 198 45 265 54 11
2 31 8 45 13 14 6 40 11 58 11 24 1 32 -3 32 -17z m-3138 -237 c-4 -17 -65
-34 -79 -22 -9 6 -13 6 -13 -1 0 -10 -38 -21 -95 -28 -11 -1 -21 -3 -22 -4 -4
-3 -12 -5 -62 -14 -31 -6 -46 -5 -51 4 -9 15 -30 5 -30 -14 0 -8 -14 -13 -36
-14 -20 -1 -45 -4 -55 -7 -12 -4 -19 -2 -19 6 0 7 -9 2 -20 -11 -15 -18 -23
-21 -32 -12 -6 6 -16 8 -22 3 -6 -4 -26 -11 -43 -14 -30 -6 -33 -4 -33 18 0
26 8 29 60 26 14 -1 39 3 55 10 17 6 46 13 65 15 19 3 49 9 66 15 18 5 36 9
40 8 5 -1 16 0 24 4 8 3 38 8 65 11 28 3 84 12 125 20 83 16 116 16 112 1z
m-958 -9 c15 -5 16 -9 6 -21 -10 -12 -16 -13 -26 -4 -11 9 -14 8 -14 -4 0 -11
-13 -18 -37 -22 -21 -3 -54 -10 -74 -14 -21 -5 -44 -4 -53 1 -10 5 -16 5 -16
0 0 -13 -144 -45 -148 -33 -2 5 -22 1 -45 -9 -48 -21 -129 -30 -133 -15 -6 18
12 35 42 39 51 7 109 18 118 24 10 6 28 8 116 17 30 3 62 8 70 11 17 8 25 9
95 19 28 3 54 10 59 15 5 5 12 8 15 6 3 -2 14 -6 25 -10z m-3814 -312 c0 -8
-4 -13 -9 -10 -11 7 -23 -22 -15 -35 3 -5 13 -9 22 -9 9 0 26 -7 37 -16 17
-13 18 -16 5 -24 -8 -6 -25 -13 -37 -16 -13 -3 -23 -10 -23 -15 0 -13 -46 -59
-53 -52 -4 3 -7 1 -7 -6 0 -7 -4 -10 -9 -7 -5 3 -21 -4 -36 -16 -21 -16 -29
-18 -35 -8 -5 9 -10 3 -15 -18 -8 -38 -33 -62 -44 -43 -6 10 -12 9 -24 -4 -9
-9 -22 -13 -28 -9 -8 4 -9 3 -5 -5 4 -6 16 -9 27 -6 11 4 19 2 19 -4 0 -6 -13
-11 -30 -11 -16 0 -30 -4 -30 -10 0 -5 5 -10 12 -10 6 0 8 -3 5 -6 -4 -4 -14
-1 -23 7 -15 12 -17 12 -12 -1 7 -21 -61 -59 -110 -61 -50 -3 -56 -1 -42 16
11 13 8 15 -19 15 -17 0 -31 5 -31 11 0 5 5 7 10 4 6 -3 10 -2 10 4 0 6 8 8
18 5 14 -5 15 -4 2 5 -12 8 -12 13 -2 23 10 10 14 10 21 0 6 -10 10 -8 14 7 3
14 10 19 20 15 8 -3 18 -1 22 5 4 7 -4 11 -19 11 -13 0 -32 3 -42 7 -13 5 -15
3 -9 -7 6 -10 4 -12 -9 -7 -14 6 -17 3 -12 -9 3 -8 -1 -22 -9 -30 -13 -14 -15
-13 -15 5 0 12 -5 21 -11 21 -26 0 15 30 50 36 20 4 42 14 48 23 10 13 14 14
21 3 8 -12 13 -12 33 0 13 7 26 14 27 15 2 1 -1 10 -7 20 -6 10 -11 12 -11 6
0 -7 -6 -13 -14 -13 -8 0 -17 6 -19 13 -4 9 -8 8 -16 -3 -5 -8 -13 -11 -18 -7
-15 16 23 28 70 22 29 -3 62 -1 83 7 29 10 39 10 57 -1 20 -13 21 -13 9 1 -16
20 -60 29 -65 14 -3 -8 -8 -8 -16 0 -9 8 -2 14 28 22 35 8 43 7 50 -6 8 -15
13 -13 34 12 16 18 31 27 41 23 9 -4 17 1 21 14 5 15 14 19 38 17 18 -2 34 2
37 7 3 6 -7 10 -22 10 -15 1 -30 4 -34 8 -4 4 1 7 10 7 13 0 16 5 12 18 -7 16
-6 16 10 0 17 -16 19 -16 36 12 20 33 28 38 28 14z m10915 -821 c46 -256 46
-257 21 -266 -26 -10 -39 13 -62 109 -38 155 -40 194 -14 227 12 15 25 27 30
27 4 0 16 -44 25 -97z"/>
</g>
</svg>
